<svg width="34" height="34" viewBox="0 0 34 34" fill="none" xmlns="http://www.w3.org/2000/svg">
<rect x="0.5" y="0.5" width="33" height="33" rx="3.5" stroke="white" stroke-opacity="0.5"/>
<path d="M32.5832 4.2496C31.2265 5.20652 29.7245 5.93842 28.1348 6.4171C27.2816 5.43607 26.1477 4.74074 24.8865 4.42516C23.6252 4.10957 22.2975 4.18896 21.0828 4.65257C19.8681 5.11619 18.8251 5.94167 18.0949 7.01736C17.3647 8.09306 16.9824 9.36707 16.9998 10.6671V12.0838C14.5102 12.1483 12.0433 11.5962 9.81877 10.4765C7.59422 9.35679 5.68112 7.70433 4.24984 5.66626C4.24984 5.66626 -1.41683 18.4163 11.3332 24.0829C8.41558 26.0634 4.93998 27.0564 1.4165 26.9163C14.1665 33.9996 29.7498 26.9163 29.7498 10.6246C29.7485 10.23 29.7106 9.83636 29.6365 9.44876C31.0824 8.02288 32.1027 6.22261 32.5832 4.2496Z" fill="white" fill-opacity="0.5"/>
</svg>
