<svg width="34" height="34" viewBox="0 0 34 34" fill="none" xmlns="http://www.w3.org/2000/svg">
<path fill-rule="evenodd" clip-rule="evenodd" d="M9.91683 2.83325H24.0835C27.9955 2.83325 31.1668 6.00457 31.1668 9.91659V24.0833C31.1668 27.9953 27.9955 31.1666 24.0835 31.1666H9.91683C6.00481 31.1666 2.8335 27.9953 2.8335 24.0833V9.91659C2.8335 6.00457 6.00481 2.83325 9.91683 2.83325ZM23.7919 9.20825C23.7919 8.65597 24.2396 8.20825 24.7919 8.20825H24.8035C25.3558 8.20825 25.8035 8.65597 25.8035 9.20825C25.8035 9.76054 25.3558 10.2083 24.8035 10.2083H24.7919C24.2396 10.2083 23.7919 9.76054 23.7919 9.20825ZM17.746 12.3224C16.775 12.1784 15.7834 12.3443 14.9121 12.7964C14.0409 13.2485 13.3343 13.9638 12.893 14.8405C12.4517 15.7173 12.2981 16.7109 12.4541 17.68C12.61 18.6491 13.0675 19.5444 13.7616 20.2384C14.4557 20.9325 15.351 21.3901 16.3201 21.546C17.2892 21.702 18.2828 21.5484 19.1595 21.107C20.0363 20.6657 20.7516 19.9592 21.2037 19.0879C21.6558 18.2167 21.8216 17.225 21.6776 16.2541C21.5308 15.2637 21.0693 14.3468 20.3613 13.6388C19.6533 12.9308 18.7364 12.4693 17.746 12.3224ZM13.991 11.0211C15.2356 10.3753 16.6523 10.1384 18.0393 10.3441C19.4542 10.5539 20.7641 11.2132 21.7755 12.2246C22.7869 13.236 23.4462 14.5459 23.656 15.9607C23.8617 17.3478 23.6248 18.7644 22.9789 20.0091C22.3331 21.2537 21.3113 22.2631 20.0587 22.8935C18.8062 23.524 17.3868 23.7434 16.0023 23.5206C14.6179 23.2978 13.3389 22.6442 12.3474 21.6527C11.3559 20.6611 10.7022 19.3822 10.4795 17.9977C10.2567 16.6133 10.4761 15.1939 11.1065 13.9413C11.737 12.6888 12.7463 11.667 13.991 11.0211Z" fill="white" fill-opacity="0.5"/>
</svg>
