<svg width="477" height="83" viewBox="0 0 477 83" fill="none" xmlns="http://www.w3.org/2000/svg">
<path d="M77.2963 47.6709C77.2239 45.6557 77.4084 43.4874 76.9028 41.3589C76.5903 40.0429 76.0927 38.908 74.5035 38.8218C73.14 38.7476 72.2274 39.4403 71.911 41.2735C71.1637 45.6039 71.1971 49.9749 71.8712 54.3101C72.1503 56.1113 73.1098 56.8583 74.4558 56.7841C76.0275 56.6971 76.5641 55.579 76.8789 54.259C77.3861 52.1329 77.2462 49.9654 77.2963 47.6709ZM71.0738 59.9397C71.0738 61.2757 71.0086 62.3124 71.0913 63.3371C71.1804 64.4321 70.9172 64.9006 69.6866 64.8343C67.5878 64.7218 65.4739 64.7258 63.3743 64.8335C62.1595 64.8958 61.948 64.4505 61.9512 63.3403C61.987 50.3165 61.9743 37.2927 61.9743 24.2689C61.9743 22.205 62.0188 20.1396 61.9544 18.0774C61.925 17.1357 62.1643 16.7925 63.162 16.8236C65.5096 16.8954 67.8628 16.8994 70.2097 16.822C71.2487 16.7877 71.5246 17.1101 71.5151 18.1341C71.4658 23.2449 71.492 28.3566 71.492 33.4683V34.7181C71.9467 34.8889 72.0302 34.5768 72.1359 34.4084C73.7975 31.7469 76.1602 30.4476 79.2973 30.7868C82.2984 31.1116 84.0649 33.0828 84.8893 35.7532C87.4747 44.125 87.8094 52.5639 84.5554 60.8272C82.8955 65.0434 78.7694 66.5709 75.0727 64.8152C73.6751 64.152 72.8475 63.1624 71.0738 59.9397Z" fill="white"/>
<path d="M13.2819 43.7211C14.4212 41.5312 15.5636 39.3429 16.7004 37.1514C17.5121 35.5863 18.3405 34.0293 19.1156 32.4459C19.5139 31.6327 19.9727 31.2113 20.995 31.2456C23.83 31.3406 26.6697 31.2783 29.7893 31.2783C28.6938 33.2783 27.6937 35.137 26.661 36.9766C25.1282 39.7108 23.6368 42.4721 21.9943 45.1385C21.3528 46.1792 21.4975 46.9725 21.9864 47.9422C24.5224 52.9684 27.0243 58.0107 29.5309 63.0521C29.7837 63.5605 29.9897 64.0944 30.2973 64.8007C27.0052 64.8007 23.8928 64.7944 20.7796 64.8063C20.2223 64.8087 20.0434 64.4504 19.8542 64.0314C17.8802 59.6587 15.6677 55.3978 13.8615 50.9485C13.6866 50.5183 13.6063 50.0188 12.9552 49.7801C13.4362 54.3834 13.2629 58.8838 13.3583 63.3794C13.3837 64.5876 12.9933 64.8702 11.8676 64.8279C9.66866 64.7449 7.46174 64.7465 5.26118 64.8279C4.19985 64.867 3.97407 64.4927 3.97725 63.4935C4.01064 53.1257 3.99792 42.7579 3.99792 32.3892C3.99792 27.6726 4.02734 22.9552 3.97566 18.2385C3.96374 17.1994 4.13228 16.7605 5.31126 16.8148C7.60722 16.9217 9.91193 16.8714 12.2111 16.8323C12.9814 16.8188 13.3567 16.9544 13.3447 17.8586C13.2462 25.7676 13.499 33.6797 13.1476 41.5863C13.1174 42.263 13.0156 42.9358 12.9464 43.6102C13.0585 43.6469 13.1706 43.6844 13.2819 43.7211Z" fill="white"/>
<path d="M251.102 35.8953C252.736 33.7221 254.385 31.9368 256.942 31.1467C261.03 29.8834 264.752 32.0438 265.582 36.2377C265.954 38.1195 266.158 40.0166 266.154 41.9415C266.138 49.0707 266.126 56.2 266.171 63.3292C266.178 64.4321 265.976 64.8926 264.748 64.8344C262.5 64.7274 260.241 64.7426 257.991 64.8296C256.89 64.8719 256.583 64.555 256.594 63.4401C256.649 57.4418 256.626 51.4434 256.615 45.4451C256.612 44.3645 256.613 43.2735 256.474 42.2065C256.347 41.2384 256.145 40.2089 254.844 40.0972C253.502 39.9814 252.402 40.3334 251.874 41.7029C251.516 42.6311 251.462 43.6127 251.462 44.6023C251.466 50.8457 251.435 57.0906 251.483 63.334C251.491 64.4457 251.274 64.891 250.053 64.8336C247.806 64.7282 245.547 64.7538 243.297 64.8264C242.256 64.8599 241.856 64.6508 241.861 63.4768C241.91 53.1521 241.901 42.8266 241.871 32.5019C241.869 31.5633 242.083 31.2194 243.085 31.2537C245.385 31.3319 247.69 31.3255 249.99 31.2561C250.931 31.2281 251.17 31.5538 251.119 32.434C251.051 33.5841 251.102 34.7413 251.102 35.8953Z" fill="white"/>
<path d="M47.4438 60.2755C46.4747 61.0577 45.8935 62.0082 45.0922 62.7799C42.634 65.1478 39.7728 65.795 36.5769 64.6993C34.1402 63.8637 33.3492 61.728 32.846 59.4623C32.4175 57.5286 32.4843 55.5509 32.4771 53.5893C32.4509 46.6611 32.4938 39.733 32.4397 32.8065C32.431 31.6437 32.6178 31.1721 33.9184 31.2439C36.1627 31.3684 38.4213 31.3349 40.6696 31.2535C41.711 31.216 41.9686 31.5296 41.9607 32.5591C41.9122 38.8975 41.9336 45.235 41.9416 51.5733C41.9424 52.3578 41.9702 53.1463 42.0489 53.9268C42.1546 54.9715 42.5418 55.8773 43.7287 56.0146C44.9395 56.1535 45.9524 55.7544 46.5383 54.594C47.0868 53.507 47.1027 52.3235 47.1043 51.1447C47.1091 45.0035 47.1345 38.8615 47.0836 32.7211C47.0741 31.599 47.3166 31.1936 48.5138 31.2479C50.8098 31.3532 53.1145 31.3125 55.4136 31.2607C56.2667 31.2415 56.6053 31.4155 56.6022 32.3764C56.568 42.7929 56.572 53.2086 56.5974 63.6243C56.599 64.4862 56.4138 64.8493 55.4685 64.8238C53.1217 64.7615 50.7708 64.7751 48.4216 64.819C47.6354 64.8342 47.3992 64.554 47.431 63.7983C47.4803 62.6259 47.4438 61.4495 47.4438 60.2755Z" fill="white"/>
<path d="M177.428 35.8792C179.003 33.8505 180.527 32.0668 182.962 31.2488C187.176 29.8346 190.945 31.8841 191.877 36.2216C192.217 37.8026 192.423 39.4115 192.423 41.0388C192.423 48.5072 192.401 55.9756 192.454 63.4432C192.462 64.5478 192.193 64.8758 191.082 64.8311C188.835 64.7401 186.577 64.7249 184.33 64.8351C183.102 64.8949 182.902 64.4368 182.911 63.3371C182.96 57.3427 182.943 51.3484 182.926 45.354C182.923 44.275 182.843 43.1944 182.748 42.1194C182.661 41.137 182.369 40.2431 181.198 40.1106C180.01 39.9774 178.922 40.1809 178.337 41.3963C177.907 42.2878 177.725 43.2383 177.728 44.2423C177.74 50.5798 177.7 56.9189 177.754 63.2565C177.763 64.4304 177.539 64.8973 176.258 64.8343C174.013 64.7241 171.756 64.7712 169.506 64.8191C168.61 64.8383 168.223 64.6699 168.227 63.622C168.269 53.2063 168.259 42.789 168.239 32.3733C168.237 31.5936 168.368 31.2352 169.263 31.2576C171.659 31.319 174.06 31.3079 176.457 31.2616C177.232 31.2472 177.482 31.4826 177.444 32.2592C177.383 33.4635 177.428 34.6725 177.428 35.8792Z" fill="white"/>
<path d="M105.991 52.2055C105.991 51.3699 105.998 50.5335 105.987 49.6979C105.982 49.3771 106.064 49.0379 105.52 48.9844C103.294 48.7641 99.6302 51.5494 99.2708 53.7769C98.9234 55.9285 100.109 57.5135 101.99 57.4145C104.383 57.2884 105.992 55.6101 105.992 53.2382C105.992 52.8942 105.992 52.5494 105.991 52.2055ZM105.944 61.1359C105.479 61.6802 105.144 62.0817 104.798 62.4743C102.275 65.337 99.1643 66.3187 95.5423 65.1175C91.9004 63.9101 90.5004 60.954 90.2182 57.3993C89.649 50.2342 93.2034 45.7011 100.694 43.9174C102.117 43.5782 103.56 43.2869 105.01 43.117C105.847 43.0196 106.047 42.7036 106.043 41.9166C106.03 39.184 104.43 37.7491 101.968 38.3588C101.349 38.5121 100.624 38.7395 100.455 39.3883C100.083 40.8161 99.0649 40.7211 97.975 40.6988C96.1648 40.6621 94.349 40.6206 92.542 40.7139C91.4433 40.7706 91.2079 40.3796 91.3638 39.3756C92.1119 34.5584 94.9246 31.6358 99.7057 30.7843C102.485 30.2895 105.279 30.236 107.98 31.0915C112.508 32.5249 114.998 36.1936 115.124 41.6062C115.234 46.3707 115.207 51.1392 115.232 55.9053C115.245 58.5095 115.166 61.116 115.43 63.7121C115.498 64.3697 115.505 64.8382 114.593 64.8191C112.146 64.7696 109.697 64.78 107.249 64.8175C106.524 64.8286 106.34 64.5126 106.294 63.867C106.233 63.0114 106.08 62.1615 105.944 61.1359Z" fill="white"/>
<path d="M153.742 52.2269C153.742 48.4448 153.49 48.2988 150.093 50.1136C149.921 50.2054 149.739 50.2828 149.574 50.3858C147.8 51.4895 146.833 53.0186 147.126 55.1798C147.326 56.6491 148.438 57.5278 149.889 57.4017C152.313 57.1926 153.742 55.6555 153.742 53.2596V52.2269ZM153.68 61.1598C151.92 63.507 150.032 65.1941 147.333 65.5109C142.271 66.1055 138.534 62.9635 138.03 57.7903C137.315 50.456 140.903 45.6995 148.536 43.9086C149.959 43.575 151.407 43.3451 152.847 43.0913C153.285 43.0139 153.666 43.0331 153.795 42.4194C154.365 39.7075 152.319 37.658 149.691 38.3715C149.013 38.5559 148.282 38.8919 148.138 39.5854C147.898 40.7242 147.185 40.7139 146.312 40.6995C144.306 40.666 142.296 40.6333 140.293 40.7123C139.327 40.7514 139.169 40.4018 139.218 39.5343C139.44 35.5878 142.142 32.1114 146.221 31.0643C149.567 30.2048 152.983 30.1106 156.331 31.2822C159.679 32.4538 161.554 34.927 162.433 38.2606C162.961 40.2646 163.065 42.3156 163.082 44.3858C163.135 50.9173 162.876 57.4519 163.244 63.9794C163.283 64.6945 163.034 64.8126 162.439 64.8094C159.993 64.7942 157.545 64.7879 155.099 64.8142C154.502 64.8206 154.226 64.6538 154.161 64.0193C154.075 63.155 153.879 62.3027 153.68 61.1598Z" fill="white"/>
<path d="M212.044 52.231C212.044 48.409 211.794 48.2765 208.28 50.1376C207.667 50.4624 207.107 50.8431 206.619 51.3283C205.702 52.2389 205.279 53.3562 205.299 54.6419C205.33 56.6204 206.678 57.7042 208.602 57.3083C211.273 56.7584 212.044 55.6204 212.044 52.231ZM211.981 61.167C210.743 62.6514 209.628 63.9316 208.083 64.7121C202.59 67.4862 196.77 63.8789 196.242 57.4943C195.558 49.2326 200.297 45.6333 206.799 43.9126C208.211 43.5391 209.665 43.2973 211.113 43.1073C211.856 43.01 212.089 42.7522 212.103 42.0076C212.157 39.2431 210.46 37.7083 207.974 38.37C207.41 38.52 206.7 38.7227 206.563 39.3093C206.183 40.9374 204.987 40.7019 203.839 40.6924C202.175 40.6788 200.505 40.6046 198.848 40.7155C197.562 40.8025 197.256 40.3683 197.472 39.1497C198.315 34.3788 201.068 31.5783 205.842 30.7699C208.122 30.3836 210.401 30.3517 212.694 30.7531C217.138 31.5296 220.206 34.7307 220.936 39.3492C221.221 41.1513 221.277 42.9581 221.302 44.7737C221.387 51.1105 221.075 57.452 221.505 63.7831C221.57 64.732 221.187 64.8246 220.43 64.8142C218.13 64.7831 215.828 64.7743 213.528 64.8198C212.755 64.835 212.366 64.6634 212.338 63.8055C212.311 63.001 212.128 62.2013 211.981 61.167Z" fill="white"/>
<path d="M283.23 44.338H285.717C286.113 44.3372 286.518 44.3763 286.514 43.7745C286.504 42.2558 286.54 40.733 285.769 39.3444C284.964 37.8935 283.183 37.366 281.732 38.1513C280.406 38.8687 279.125 42.2781 279.896 43.8408C280.442 44.9493 281.814 44.1281 282.792 44.3348C282.933 44.3651 283.084 44.3388 283.23 44.338ZM287.712 50.3371C285.509 50.3371 283.305 50.3898 281.105 50.314C280.112 50.2796 279.842 50.6348 279.889 51.5622C279.958 52.8822 279.841 54.2134 280.341 55.4855C280.901 56.9101 282.004 57.5254 283.445 57.4655C284.932 57.4025 285.965 56.5829 286.184 55.0865C286.353 53.9332 286.812 53.6076 287.966 53.6699C290.114 53.7864 292.273 53.7369 294.425 53.6866C295.28 53.6659 295.448 53.8909 295.369 54.7664C294.73 61.7991 290.709 65.5173 283.63 65.5796C279.946 65.6123 276.507 65.0042 273.908 62.0632C271.834 59.7185 271.055 56.8063 270.721 53.8271C270.186 49.0857 270.125 44.3244 271.221 39.6237C272.917 32.354 277.817 29.9758 284.479 30.536C291.732 31.1465 294.204 36.1194 295.11 41.2007C295.587 43.8775 295.618 46.567 295.587 49.2709C295.576 50.1096 295.284 50.3682 294.466 50.3523C292.216 50.3076 289.963 50.3371 287.712 50.3371Z" fill="white"/>
<path d="M134.039 64.8032C130.728 64.8032 127.654 64.7824 124.58 64.8191C123.867 64.8271 123.698 64.4416 123.499 63.8934C122.481 61.0777 122.304 58.132 122.248 55.1935C122.162 50.575 122.186 45.9542 122.245 41.3349C122.259 40.2822 121.956 40.0317 120.943 40.054C118.434 40.1099 118.433 40.0572 118.433 37.5073C118.433 35.7875 118.472 34.066 118.417 32.3478C118.389 31.5194 118.636 31.2672 119.481 31.256C122.22 31.2193 122.219 31.1802 122.219 28.4029C122.219 25.8466 122.244 23.2904 122.203 20.7358C122.191 19.9856 122.373 19.7038 123.173 19.7174C125.766 19.7645 128.363 19.7653 130.956 19.7174C131.746 19.7022 131.935 19.9696 131.926 20.7198C131.89 23.8642 131.947 27.011 131.889 30.1547C131.871 31.0669 132.116 31.3071 133.024 31.3031C135.779 31.2927 135.779 31.3366 135.779 34.1586C135.779 35.7803 135.739 37.4036 135.798 39.0229C135.829 39.8776 135.523 40.0883 134.704 40.1003C131.91 40.1434 131.889 40.1769 131.916 43.0635C131.959 47.5344 131.817 52.0052 132.051 56.4768C132.197 59.2956 132.618 62.0235 134.039 64.8032Z" fill="white"/>
<path d="M313.803 64.7976C310.435 64.7976 307.275 64.8088 304.115 64.7896C303.324 64.7848 303.302 64.049 303.126 63.5278C302.254 60.9381 302.087 58.2422 302.065 55.5423C302.027 50.8265 302.006 46.109 302.082 41.394C302.101 40.236 301.744 40.0253 300.691 40.054C298.197 40.1218 298.195 40.0676 298.195 37.5209C298.195 35.8019 298.23 34.0812 298.18 32.3629C298.156 31.5784 298.312 31.2624 299.199 31.2536C302.05 31.2257 302.05 31.1818 302.05 28.3742C302.05 25.8195 302.079 23.2649 302.033 20.711C302.019 19.9417 302.228 19.7023 303.01 19.7174C305.554 19.7653 308.1 19.7701 310.643 19.7158C311.517 19.6975 311.701 20.0231 311.69 20.8251C311.651 23.8706 311.712 26.9169 311.653 29.9623C311.635 30.9264 311.795 31.331 312.894 31.3087C315.55 31.2528 315.551 31.3151 315.551 33.9591C315.551 35.6295 315.518 37.3006 315.565 38.9694C315.587 39.7491 315.425 40.0859 314.536 40.1043C311.674 40.1633 311.671 40.2048 311.676 43.1466C311.681 46.7818 311.687 50.417 311.705 54.0523C311.724 57.6867 311.956 61.2861 313.803 64.7976Z" fill="white"/>
<path d="M420.989 64.9467C420.905 64.7647 420.896 64.7064 420.863 64.6833C420.746 64.5987 420.631 64.495 420.498 64.455C418.911 63.9682 418.299 62.8988 418.715 61.3042C419.541 58.1375 420.382 54.9755 421.384 51.8566C421.772 50.6467 422.309 49.8686 423.693 49.8654C424.959 49.863 425.52 49.0466 425.563 47.8622C425.647 45.5973 427.093 43.5997 426.831 41.2669C426.813 41.1033 426.974 40.9078 427.079 40.7442C428.103 39.1369 428.737 37.4202 428.612 35.4737C428.546 34.4569 428.993 33.7881 429.994 33.5048C434.049 32.3572 436.632 32.3939 439.189 36.2103C440.534 38.2183 442.117 39.6085 444.758 39.14C445.743 38.9661 446.702 39.2765 447.571 39.7921C450.223 41.3683 452.871 42.9517 455.529 44.5175C455.972 44.7785 456.166 45.0698 455.989 45.5957C455.611 46.7114 455.274 47.7888 454.23 48.5645C453.095 49.4065 452.085 50.4272 451.068 51.4193C449.415 53.0306 449.521 53.693 451.54 54.8159C451.711 54.9116 451.926 54.9571 452.058 55.088C452.579 55.6052 453.858 55.7512 453.548 56.582C453.31 57.2213 452.22 56.6491 451.526 56.5661C450.03 56.3873 448.496 55.6786 447.043 56.3147C443.007 58.0824 439.133 60.1861 435.462 62.6306C434.243 63.4423 433.179 64.4128 431.668 64.7623C430.341 65.0696 430.178 66.0536 431.139 67.0464C431.616 67.5396 432.184 67.9626 432.571 68.5149C432.899 68.9817 433.152 69.633 432.737 70.1677C432.38 70.6274 431.829 70.3385 431.363 70.2395C431.028 70.1693 430.698 70.0719 430.366 69.9897C430.07 69.9171 429.766 69.8756 429.578 70.1813C429.385 70.4973 429.562 70.771 429.797 70.9498C430.807 71.716 431.718 72.6305 432.985 73.0104C433.854 73.2706 434.525 73.182 434.909 72.2475C435.033 71.9482 435.086 71.439 435.504 71.5188C436.378 71.684 437.256 72.0519 437.728 72.8085C438.152 73.4877 437.617 74.1182 437.102 74.5858C436.751 74.9059 436.162 75.0663 436.41 75.7063C436.637 76.2897 437.208 76.3975 437.743 76.4653C438.643 76.5802 439.566 76.6018 440.073 75.6577C440.532 74.8029 441.049 75.0104 441.586 75.4885C442.463 76.2714 443.27 77.1397 444.181 77.8795C445.646 79.0686 446.265 78.8667 446.636 77.0287C447.09 74.7846 447.859 72.6752 449.074 70.7519C450.621 68.3018 452.054 65.7862 453.532 63.2962C454.814 61.135 455.471 58.4008 458.338 57.5405C458.586 57.4663 458.774 57.1558 458.965 56.9332C459.953 55.7792 460.946 54.6291 461.913 53.4583C462.899 52.2668 464.207 52.3299 464.937 53.6275C466.6 56.5836 468.179 59.5772 469.287 62.799C469.429 63.214 469.658 63.5987 469.849 63.9962C469.982 64.2731 470.155 64.5213 470.505 64.4782C470.854 64.4343 470.955 64.1406 471.041 63.8549C471.285 63.0353 471.275 62.2069 471.116 61.3745C470.327 57.2285 469.774 53.0425 469.026 48.8886C468.651 46.8072 467.881 45.5765 465.957 44.9277C465.128 44.6476 464.183 44.2837 463.87 43.4289C463.198 41.5933 461.772 41.0267 460.066 40.6237C454.606 39.3356 448.92 39.0403 443.667 36.8432C443.269 36.6756 442.772 36.4266 442.413 36.5319C440.768 37.018 440.342 35.8025 439.697 34.7722C437.382 31.0747 435.216 27.2734 432.222 24.0452C431.438 23.1993 430.585 22.7779 429.495 23.0764C427.798 23.5424 426.464 22.7906 425.389 21.7045C424.218 20.5217 423.082 20.3485 421.552 20.8601C417.888 22.0867 414.211 23.2926 410.225 22.4403C409.252 22.232 408.158 22.1809 407.176 22.5919C406.352 22.9359 405.642 22.7563 404.955 22.3054C403.625 21.4315 402.143 20.9136 400.634 20.4938C397.063 19.5018 393.717 18.0509 390.799 15.7221C390.129 15.1874 389.603 15.2233 389.005 15.7987C387.686 17.0692 386.096 17.2799 384.366 16.9527C382.836 16.663 381.488 17.0373 380.244 18.0118C377.122 20.4571 373.956 22.8441 370.816 25.2663C368.622 26.959 366.124 28.1386 363.551 28.9869C361.89 29.5344 360.156 29.9079 358.572 30.6732C357.335 31.271 356.039 31.4506 354.722 31.4163C353.159 31.3756 351.597 31.0356 350.042 31.0843C346.806 31.1856 345.466 30.5998 344.385 34.0739C344.064 35.1074 343.215 35.749 342.114 35.9565C341.423 36.0874 340.877 36.326 340.464 37.0068C338.064 40.9652 336.163 45.1623 334.405 49.4336C333.791 50.9276 332.966 52.3394 332.866 54.0122C332.835 54.5373 332.498 55.1503 333.104 55.4791C333.759 55.835 334.204 55.2788 334.6 54.859C336.483 52.8646 337.849 50.543 338.665 47.9309C338.996 46.871 339.511 45.9548 340.141 45.0769C341.909 42.6157 342.859 42.6819 344.175 45.3523C344.597 46.2078 345.26 47.1041 346.191 46.3682C348.554 44.4991 351.814 43.1919 351.31 39.2119C351.222 38.5136 351.377 37.8935 352.103 37.4633C353.788 36.4649 355.352 35.2351 357.1 34.3771C359.045 33.4226 360.918 31.7866 363.395 33.0212C363.947 33.2965 364.572 32.9964 364.976 32.5112C365.601 31.7626 366.294 31.0771 366.69 30.1377C367.248 28.8105 368.255 27.8975 369.625 27.4179C371.067 26.9135 372.431 26.2327 373.682 25.3708C375.3 24.2559 376.988 23.9678 378.955 24.121C380.524 24.2423 380.91 24.9071 380.799 26.2088C380.661 27.8353 380.837 29.4482 380.957 31.0579C381.162 33.8352 381.581 34.0866 384.265 33.4514C385.051 33.2646 385.843 32.8305 386.756 33.1577C386.467 33.7937 385.949 33.9342 385.518 34.0587C383.462 34.6564 382.82 36.1449 382.561 38.1265C381.944 42.8519 381.025 47.5278 379.946 52.1726C379.493 54.1231 379.39 56.001 380.951 57.6722C381.598 58.3641 381.768 59.4766 381.318 60.4399C380.871 61.3912 380.015 61.2188 379.157 61.1023C378.034 60.9491 376.9 60.8645 376.188 62.1087C375.843 62.712 375.182 62.6179 374.59 62.5556C372.963 62.3856 371.987 61.337 371.209 60.0217C368.874 56.0705 366.12 52.6874 361.586 50.9564C358.787 49.8885 356.529 47.8726 355.061 45.0602C354.142 43.298 352.399 43.0578 350.683 44.1065C349.577 44.7824 348.709 45.7154 347.806 46.6092C346.209 48.1902 346.136 49.017 347.05 51.0753C348.724 54.847 349.943 58.7831 350.833 62.8054C351.592 66.2403 352.582 69.5556 354.569 72.4989C354.974 73.0982 355.519 73.6034 355.367 74.4645C355.27 75.0128 355.659 75.265 356.197 75.2035C357.169 75.0918 358.015 74.7327 358.463 73.7965C358.779 73.1373 358.717 72.613 357.916 72.2602C355.493 71.1932 354.809 68.7615 356.342 66.5907C357.097 65.5197 357.566 64.3912 357.766 63.0919C358.062 61.1614 359.358 60.2556 361.293 60.5229C362.217 60.6506 363.117 60.7232 364.061 60.5532C365.439 60.3042 368.306 62.1686 368.575 63.5229C368.763 64.4638 368.767 65.4087 367.621 66.0225C366.475 66.637 365.533 67.5971 364.317 68.1565C363.878 68.3584 363.071 68.8301 363.601 69.4869C364.079 70.0783 364.867 69.8708 365.458 69.4175C365.68 69.2467 365.772 68.9139 365.981 68.7144C366.682 68.0464 367.158 67.0304 368.175 66.8253C370.768 66.301 372.965 64.8724 375.259 63.7096C376.35 63.1558 377.331 62.8533 378.535 62.8597C380.563 62.8685 382.19 61.2276 382.108 59.309C382.063 58.258 382.391 57.7863 383.461 57.6874C384.681 57.574 384.672 58.4176 384.773 59.1845C384.992 60.8461 385.303 61.1247 386.935 60.7623C388.935 60.3178 390.91 59.8446 392.999 60.1374C393.619 60.2244 394.734 60.4766 394.876 59.8565C395.062 59.0385 393.875 59.2372 393.363 58.8661C393.246 58.7807 393.096 58.7432 392.965 58.6762C392.156 58.2628 391.944 57.4687 391.904 56.6922C391.857 55.7967 392.727 55.8773 393.286 55.677C395.104 55.0258 397.069 55.2708 398.922 54.7448C399.724 54.5174 399.841 54.2508 399.607 53.5318C398.963 51.5525 398.132 49.6787 396.742 48.1024C396.408 47.7234 395.996 47.3084 396.112 46.8239C396.601 44.7697 395.445 43.1943 394.812 41.4082C392.767 35.6389 391.113 29.7475 390.579 23.6063C390.377 21.2703 391.517 20.4467 393.808 21.1474C396.242 21.892 398.646 22.8409 401.137 23.2639C405.108 23.9383 409.1 24.7076 413.178 24.3565C413.562 24.3237 413.98 24.3509 414.341 24.4738C415.429 24.8457 416.559 25.3501 416.699 26.6254C416.891 28.3724 416.984 30.1569 416.863 31.9079C416.678 34.5894 415.1 36.749 413.813 38.9876C412.479 41.3084 410.367 43.389 411.862 46.448C411.918 46.5638 411.873 46.7393 411.849 46.883C411.519 48.8518 410.819 50.598 409.389 52.0968C408.047 53.5038 406.842 55.0721 405.757 56.6922C404.672 58.3146 404.774 58.3761 406.599 58.9284C406.968 59.0409 407.32 59.2372 407.658 59.432C408.116 59.6961 408.445 59.6881 408.744 59.1742C409.732 57.4799 410.993 55.914 411.579 54.0282C412.315 51.6595 414.054 49.9197 415.159 47.792C415.325 47.4736 415.576 47.2629 415.96 47.2254C418.892 46.9389 420.707 49.0921 419.761 51.8837C418.944 54.2987 418.016 56.6826 417.01 59.0249C416.511 60.1885 415.758 61.2587 414.297 61.4383C413.957 61.4806 413.525 61.5844 413.532 61.9874C413.538 62.4223 414.022 62.4359 414.333 62.4591C415.879 62.5788 417.105 63.3074 418.217 64.3361C418.973 65.0352 419.863 65.3473 420.989 64.9467Z" fill="white"/>
<path d="M460.667 36.9605C460.353 37.8919 460.522 38.6301 461.28 39.0986C462.075 39.5902 462.883 39.3787 463.614 38.8639C464.743 38.0714 465.151 36.8831 465.418 35.5998C465.514 35.1329 465.647 34.5719 466.29 34.5918C466.786 34.607 467.281 34.8193 467.552 35.2383C467.857 35.7067 467.387 36.0451 467.175 36.409C466.365 37.8017 465.274 39.0475 464.894 40.666C464.616 41.8527 464.835 42.9166 465.879 43.6763C466.872 44.3994 467.828 44.1129 468.737 43.4992C470.475 42.326 471.902 40.8687 472.695 38.8815C473.118 37.8216 473.239 36.6469 472.416 35.8177C471.448 34.8424 470.758 33.8768 470.763 32.4418C470.765 32.0747 470.391 31.6366 470.082 31.3476C468.8 30.1481 467.275 30.038 465.697 30.5759C464.168 31.0971 463.284 32.1904 463.15 33.8448C463.087 34.6277 463.005 35.4091 462.933 36.1912C462.874 36.8392 462.809 37.5319 462.156 37.8392C461.378 38.2039 461.328 37.1752 460.667 36.9605Z" fill="white"/>
<path d="M384.841 15.8203C386.26 15.845 387.152 14.8522 387.027 13.7453C386.83 12.023 389.471 11.2417 388.245 9.35345C388.217 9.30876 388.486 9.07651 388.606 8.92488C389.52 7.77725 389.305 7.11245 387.804 6.87781C386.987 6.75012 386.788 6.47638 387.039 5.74135C387.194 5.28645 387.147 4.86267 386.713 4.56977C386.205 4.2274 385.738 4.42612 385.409 4.81558C384.863 5.45963 384.491 5.39977 384.1 4.67991C383.867 4.25134 383.563 3.7717 382.999 3.8531C382.368 3.94408 382.158 4.52508 382.105 5.059C382.021 5.889 381.671 5.95444 380.929 5.79482C379.915 5.57535 379.442 6.18668 379.925 7.15714C380.315 7.93926 380.259 8.32552 379.527 8.82113C378.751 9.34706 378.394 10.0877 379.697 10.4412C380.472 10.6511 380.269 10.9951 380.055 11.5011C379.795 12.1212 379.825 12.8059 380.695 12.7126C381.606 12.6144 381.866 13.1611 382.23 13.754C382.846 14.7556 383.444 15.8107 384.841 15.8203Z" fill="white"/>
<path d="M340.745 33.2239C342.302 33.6421 342.929 32.5264 343.433 31.0883C344.166 28.9989 343.392 27.2735 342.352 25.5536C341.407 23.991 338.857 22.4515 337.484 22.8426C335.477 23.4148 335.365 25.165 335.251 26.8617C335.242 27.0077 335.212 27.153 335.197 27.299C334.884 30.3509 337.461 33.2263 340.745 33.2239Z" fill="white"/>
<path d="M432.71 14.6885C432.687 14.2839 432.704 13.8841 432.633 13.5018C432.396 12.2257 431.534 11.8498 430.366 12.347C427.732 13.4683 427.32 15.9439 426.784 18.2807C426.496 19.5385 427.322 20.5233 428.448 20.9151C429.523 21.2886 430.384 20.6095 431.061 19.7523C432.237 18.2615 432.651 16.5305 432.71 14.6885Z" fill="white"/>
<path d="M411.65 61.4598C410.159 61.2004 408.712 60.8245 407.288 60.3481C407.022 60.2587 406.654 60.3369 406.572 60.6785C406.475 61.0799 406.885 61.1502 407.123 61.2212C408.599 61.6585 410.092 61.9243 411.65 61.4598Z" fill="white"/>
<path d="M389.92 58.5636C389.745 58.0577 390.013 57.1247 389.057 57.2388C388.486 57.3075 387.379 57.1207 387.436 57.9874C387.497 58.9403 388.582 59.2077 389.415 59.4C390.019 59.5397 389.872 58.9555 389.92 58.5636ZM420.989 64.9475C419.864 65.3481 418.973 65.0352 418.217 64.3361C417.105 63.3074 415.879 62.5788 414.333 62.4599C414.021 62.4359 413.538 62.4231 413.531 61.9866C413.525 61.5852 413.957 61.4798 414.296 61.4383C415.758 61.2587 416.511 60.1893 417.01 59.0241C418.015 56.6818 418.944 54.2987 419.761 51.8837C420.707 49.0921 418.892 46.9389 415.959 47.2254C415.576 47.2629 415.324 47.4736 415.159 47.7928C414.054 49.9197 412.315 51.6595 411.579 54.0282C410.993 55.9132 409.732 57.4799 408.744 59.1734C408.444 59.6889 408.116 59.6953 407.657 59.432C407.32 59.2372 406.969 59.0409 406.598 58.9284C404.774 58.3761 404.671 58.3146 405.757 56.6922C406.842 55.0721 408.047 53.5046 409.39 52.096C410.819 50.5972 411.519 48.8518 411.849 46.883C411.873 46.7393 411.918 46.5638 411.862 46.4488C410.367 43.389 412.479 41.3076 413.813 38.9868C415.099 36.749 416.678 34.5894 416.863 31.9079C416.984 30.1569 416.891 28.3732 416.699 26.6254C416.559 25.3501 415.429 24.8457 414.341 24.4738C413.981 24.3509 413.561 24.3229 413.178 24.3565C409.1 24.7076 405.108 23.9391 401.138 23.2639C398.646 22.8409 396.242 21.8928 393.808 21.1482C391.517 20.4467 390.377 21.2703 390.579 23.6063C391.113 29.7475 392.767 35.6389 394.812 41.4082C395.445 43.1943 396.601 44.7697 396.112 46.8247C395.996 47.3084 396.407 47.7242 396.742 48.1017C398.132 49.6787 398.962 51.5525 399.607 53.5326C399.842 54.25 399.723 54.5174 398.922 54.7448C397.069 55.2708 395.104 55.0258 393.286 55.677C392.727 55.8773 391.857 55.7967 391.904 56.693C391.943 57.4687 392.156 58.2628 392.965 58.677C393.095 58.7432 393.245 58.7807 393.362 58.8653C393.875 59.2372 395.062 59.0385 394.875 59.8565C394.734 60.4774 393.619 60.2244 392.998 60.1366C390.91 59.8446 388.935 60.3178 386.934 60.7623C385.303 61.1247 384.992 60.8461 384.773 59.1845C384.672 58.4176 384.681 57.574 383.461 57.6866C382.391 57.7855 382.062 58.258 382.108 59.309C382.19 61.2276 380.564 62.8693 378.536 62.8589C377.331 62.8541 376.35 63.1566 375.259 63.7096C372.965 64.8724 370.768 66.301 368.175 66.8253C367.158 67.0304 366.682 68.0464 365.98 68.7152C365.772 68.9139 365.68 69.2467 365.458 69.4175C364.867 69.8708 364.079 70.0783 363.601 69.4869C363.071 68.8301 363.878 68.3576 364.316 68.1565C365.533 67.5971 366.475 66.637 367.621 66.0233C368.767 65.4087 368.763 64.4638 368.575 63.5237C368.306 62.1694 365.439 60.305 364.06 60.5532C363.117 60.7232 362.217 60.6506 361.293 60.5229C359.358 60.2548 358.062 61.1606 357.766 63.0919C357.566 64.3912 357.097 65.5197 356.342 66.5899C354.809 68.7607 355.493 71.1924 357.916 72.2594C358.716 72.6122 358.778 73.1373 358.464 73.7965C358.015 74.7335 357.169 75.0926 356.197 75.2035C355.66 75.2658 355.27 75.0128 355.367 74.4645C355.519 73.6034 354.974 73.0982 354.569 72.4989C352.582 69.5556 351.592 66.2395 350.832 62.8054C349.943 58.7823 348.724 54.847 347.05 51.0753C346.136 49.0162 346.209 48.191 347.806 46.6092C348.709 45.7154 349.577 44.7817 350.682 44.1065C352.399 43.0578 354.141 43.298 355.061 45.0602C356.529 47.8726 358.787 49.8885 361.586 50.9564C366.119 52.6866 368.874 56.0705 371.21 60.0209C371.987 61.337 372.963 62.3856 374.59 62.5556C375.182 62.6179 375.843 62.7112 376.188 62.1087C376.899 60.8645 378.034 60.9491 379.157 61.1023C380.015 61.2188 380.871 61.3912 381.317 60.4399C381.769 59.4766 381.598 58.3641 380.952 57.6714C379.39 56.001 379.494 54.1231 379.947 52.1726C381.025 47.5278 381.944 42.8519 382.562 38.1257C382.82 36.1449 383.462 34.6564 385.519 34.0595C385.948 33.9342 386.467 33.7937 386.756 33.1577C385.843 32.8305 385.051 33.2646 384.265 33.4506C381.581 34.0858 381.162 33.8352 380.957 31.0579C380.837 29.4482 380.661 27.8345 380.799 26.2088C380.91 24.9071 380.524 24.2423 378.955 24.121C376.988 23.9678 375.3 24.2559 373.682 25.3708C372.432 26.2327 371.067 26.9135 369.625 27.4179C368.256 27.8975 367.249 28.8105 366.69 30.1377C366.294 31.0771 365.601 31.7634 364.977 32.512C364.572 32.9964 363.947 33.2973 363.394 33.0212C360.918 31.7866 359.045 33.4226 357.1 34.3763C355.352 35.2351 353.788 36.4641 352.104 37.4625C351.377 37.8935 351.222 38.5136 351.31 39.2119C351.813 43.1919 348.554 44.4991 346.19 46.3682C345.26 47.1041 344.597 46.2086 344.175 45.3523C342.859 42.6827 341.909 42.6157 340.141 45.0777C339.511 45.9548 338.996 46.871 338.665 47.9309C337.849 50.5438 336.483 52.8646 334.599 54.859C334.203 55.2788 333.759 55.8342 333.105 55.4799C332.498 55.1511 332.834 54.5373 332.865 54.013C332.966 52.3394 333.791 50.9276 334.405 49.4336C336.163 45.1615 338.063 40.9652 340.464 37.0068C340.877 36.3252 341.423 36.0866 342.114 35.9565C343.215 35.749 344.064 35.1066 344.385 34.0747C345.466 30.599 346.806 31.1848 350.042 31.0835C351.597 31.0356 353.159 31.3756 354.722 31.4163C356.039 31.4506 357.334 31.271 358.572 30.6732C360.157 29.9087 361.891 29.5344 363.551 28.9869C366.124 28.1378 368.622 26.9582 370.816 25.2663C373.956 22.8449 377.122 20.4579 380.243 18.0118C381.488 17.0373 382.836 16.663 384.365 16.9527C386.095 17.2799 387.685 17.0692 389.005 15.7987C389.603 15.2233 390.128 15.1874 390.799 15.7221C393.717 18.0501 397.062 19.5018 400.634 20.4938C402.144 20.9128 403.625 21.4315 404.955 22.3054C405.642 22.7563 406.352 22.9359 407.176 22.5911C408.158 22.1809 409.251 22.232 410.225 22.4403C414.211 23.2926 417.887 22.0875 421.552 20.8609C423.082 20.3485 424.218 20.5217 425.388 21.7037C426.464 22.7898 427.798 23.5424 429.495 23.0764C430.584 22.7779 431.437 23.1985 432.222 24.0444C435.216 27.2734 437.382 31.0739 439.697 34.7722C440.342 35.8025 440.768 37.018 442.414 36.5319C442.772 36.4258 443.268 36.6756 443.668 36.8432C448.919 39.0403 454.607 39.3356 460.065 40.6237C461.772 41.0259 463.197 41.5933 463.869 43.4289C464.183 44.2837 465.128 44.6476 465.957 44.9277C467.881 45.5765 468.651 46.8072 469.026 48.8886C469.774 53.0425 470.327 57.2285 471.116 61.3745C471.275 62.2069 471.285 63.0353 471.04 63.8549C470.955 64.1414 470.854 64.4351 470.505 64.4774C470.155 64.5205 469.981 64.2739 469.849 63.997C469.658 63.5995 469.429 63.214 469.287 62.799C468.179 59.578 466.6 56.5828 464.937 53.6283C464.207 52.3291 462.899 52.2668 461.913 53.4583C460.945 54.6291 459.953 55.7799 458.965 56.9332C458.774 57.1558 458.586 57.4671 458.338 57.5405C455.471 58.4008 454.814 61.1358 453.532 63.2954C452.054 65.7862 450.621 68.3018 449.074 70.7519C447.859 72.6744 447.089 74.7854 446.636 77.0287C446.265 78.8667 445.646 79.0686 444.181 77.8795C443.269 77.1397 442.464 76.2714 441.586 75.4885C441.049 75.0104 440.533 74.8029 440.074 75.6585C439.566 76.6018 438.643 76.5802 437.743 76.4653C437.208 76.3975 436.638 76.2897 436.41 75.7055C436.163 75.0663 436.75 74.9059 437.102 74.5858C437.617 74.1174 438.152 73.4869 437.728 72.8085C437.256 72.0511 436.378 71.684 435.504 71.518C435.085 71.439 435.032 71.949 434.909 72.2467C434.524 73.1812 433.854 73.2714 432.985 73.0104C431.717 72.6305 430.808 71.716 429.798 70.9498C429.562 70.771 429.384 70.4973 429.578 70.182C429.766 69.8748 430.07 69.9171 430.365 69.9905C430.698 70.0727 431.028 70.1693 431.363 70.2403C431.829 70.3385 432.38 70.6274 432.736 70.1677C433.151 69.633 432.899 68.9817 432.572 68.5149C432.184 67.9618 431.616 67.5388 431.139 67.0464C430.178 66.0536 430.341 65.0696 431.669 64.7623C433.179 64.4135 434.242 63.4423 435.462 62.6306C439.133 60.1861 443.007 58.0824 447.043 56.3147C448.496 55.6786 450.031 56.3873 451.527 56.5661C452.221 56.6491 453.309 57.2213 453.548 56.5812C453.857 55.7512 452.579 55.6052 452.058 55.088C451.925 54.9563 451.711 54.9116 451.54 54.8167C449.521 53.6922 449.416 53.0306 451.068 51.4193C452.085 50.428 453.095 49.4065 454.23 48.5637C455.274 47.7896 455.611 46.7114 455.989 45.5957C456.167 45.0706 455.972 44.7785 455.529 44.5183C452.871 42.9517 450.223 41.3683 447.57 39.7921C446.702 39.2765 445.743 38.9653 444.758 39.14C442.117 39.6085 440.535 38.2183 439.189 36.2103C436.632 32.3939 434.049 32.3572 429.994 33.5048C428.992 33.7873 428.546 34.4569 428.611 35.4737C428.737 37.4202 428.102 39.1369 427.078 40.7442C426.974 40.9086 426.812 41.1033 426.83 41.2669C427.092 43.6005 425.647 45.5973 425.563 47.8622C425.519 49.0466 424.96 49.863 423.693 49.8654C422.309 49.8686 421.772 50.6467 421.384 51.8558C420.382 54.9755 419.541 58.1383 418.715 61.3042C418.298 62.8996 418.911 63.9674 420.498 64.455C420.631 64.4957 420.746 64.5995 420.863 64.6833C420.896 64.7064 420.904 64.7639 420.989 64.9475Z" fill="white"/>
<path d="M460.667 36.9605C461.328 37.1752 461.378 38.2039 462.156 37.8392C462.809 37.5319 462.874 36.8392 462.933 36.1912C463.005 35.4091 463.087 34.6277 463.15 33.8448C463.284 32.1904 464.168 31.0971 465.697 30.5759C467.275 30.038 468.8 30.1481 470.082 31.3476C470.391 31.6366 470.765 32.0747 470.763 32.4418C470.758 33.8768 471.448 34.8424 472.416 35.8177C473.239 36.6469 473.118 37.8216 472.695 38.8815C471.902 40.8687 470.475 42.326 468.737 43.4992C467.828 44.1129 466.872 44.3994 465.879 43.6763C464.835 42.9166 464.616 41.8527 464.894 40.666C465.274 39.0475 466.365 37.8017 467.175 36.409C467.387 36.0451 467.857 35.7067 467.552 35.2383C467.281 34.8193 466.786 34.607 466.29 34.5918C465.647 34.5719 465.514 35.1329 465.418 35.5998C465.151 36.8831 464.743 38.0714 463.614 38.8639C462.883 39.3787 462.075 39.5902 461.28 39.0986C460.522 38.6301 460.353 37.8919 460.667 36.9605Z" fill="white"/>
<path d="M384.841 15.8203C383.444 15.8107 382.846 14.7556 382.23 13.754C381.866 13.1611 381.606 12.6144 380.695 12.7126C379.825 12.8059 379.795 12.1212 380.055 11.5011C380.269 10.9951 380.472 10.6511 379.697 10.4412C378.394 10.0877 378.751 9.34706 379.527 8.82113C380.259 8.32552 380.315 7.93926 379.925 7.15714C379.442 6.18668 379.915 5.57535 380.929 5.79482C381.671 5.95444 382.021 5.889 382.105 5.059C382.158 4.52508 382.368 3.94408 382.999 3.8531C383.563 3.7717 383.867 4.25134 384.1 4.67991C384.491 5.39977 384.863 5.45963 385.409 4.81558C385.738 4.42612 386.205 4.2274 386.713 4.56977C387.147 4.86267 387.194 5.28645 387.039 5.74135C386.788 6.47638 386.987 6.75012 387.804 6.87781C389.305 7.11245 389.52 7.77725 388.606 8.92488C388.486 9.07651 388.217 9.30876 388.245 9.35345C389.471 11.2417 386.83 12.023 387.027 13.7453C387.152 14.8522 386.26 15.845 384.841 15.8203Z" fill="white"/>
<path d="M340.745 33.2239C337.461 33.2263 334.884 30.3509 335.197 27.299C335.212 27.153 335.242 27.0077 335.251 26.8617C335.365 25.165 335.477 23.4148 337.484 22.8426C338.857 22.4515 341.407 23.991 342.352 25.5536C343.392 27.2735 344.166 28.9989 343.433 31.0883C342.929 32.5264 342.302 33.6421 340.745 33.2239Z" fill="white"/>
<path d="M432.71 14.6885C432.651 16.5305 432.237 18.2615 431.061 19.7523C430.384 20.6095 429.523 21.2886 428.448 20.9151C427.322 20.5233 426.496 19.5385 426.784 18.2807C427.32 15.9439 427.732 13.4683 430.366 12.347C431.534 11.8498 432.396 12.2257 432.633 13.5018C432.704 13.8841 432.687 14.2839 432.71 14.6885Z" fill="white"/>
<path d="M411.65 61.4598C410.092 61.9243 408.599 61.6585 407.123 61.2212C406.885 61.1502 406.475 61.0799 406.572 60.6785C406.654 60.3369 407.022 60.2587 407.288 60.3481C408.712 60.8245 410.159 61.2004 411.65 61.4598Z" fill="white"/>
<path d="M389.92 58.5636C389.872 58.9555 390.019 59.5397 389.414 59.4C388.582 59.2077 387.497 58.9403 387.436 57.9874C387.379 57.1207 388.486 57.3075 389.057 57.2388C390.013 57.1247 389.745 58.0577 389.92 58.5636Z" fill="white"/>
<path d="M227.302 54.9004C229.676 54.5548 232.17 54.8517 234.571 54.7887C234.597 58.1286 234.597 61.4725 234.571 64.8125C232.113 64.8476 229.652 64.8476 227.196 64.8125C227.161 62.4135 227.198 60.0137 227.152 57.6146C227.152 56.7224 227.111 55.7751 227.302 54.9004Z" fill="white"/>
</svg>
