<svg width="34" height="34" viewBox="0 0 34 34" fill="none" xmlns="http://www.w3.org/2000/svg">
<rect x="0.5" y="0.5" width="33" height="33" rx="3.5" stroke="white" stroke-opacity="0.5"/>
<path fill-rule="evenodd" clip-rule="evenodd" d="M9.91683 2.83301H24.0835C27.9955 2.83301 31.1668 6.00432 31.1668 9.91634V24.083C31.1668 27.995 27.9955 31.1663 24.0835 31.1663H9.91683C6.00481 31.1663 2.8335 27.995 2.8335 24.083V9.91634C2.8335 6.00432 6.00481 2.83301 9.91683 2.83301ZM23.7919 9.20801C23.7919 8.65572 24.2396 8.20801 24.7919 8.20801H24.8035C25.3558 8.20801 25.8035 8.65572 25.8035 9.20801C25.8035 9.76029 25.3558 10.208 24.8035 10.208H24.7919C24.2396 10.208 23.7919 9.76029 23.7919 9.20801ZM17.746 12.3222C16.775 12.1782 15.7834 12.344 14.9121 12.7961C14.0409 13.2482 13.3343 13.9635 12.893 14.8403C12.4517 15.7171 12.2981 16.7107 12.4541 17.6798C12.61 18.6489 13.0675 19.5441 13.7616 20.2382C14.4557 20.9323 15.351 21.3898 16.3201 21.5458C17.2892 21.7017 18.2828 21.5481 19.1595 21.1068C20.0363 20.6655 20.7516 19.959 21.2037 19.0877C21.6558 18.2164 21.8216 17.2248 21.6776 16.2538C21.5308 15.2634 21.0693 14.3465 20.3613 13.6385C19.6533 12.9306 18.7364 12.469 17.746 12.3222ZM13.991 11.0209C15.2356 10.3751 16.6523 10.1381 18.0393 10.3438C19.4542 10.5536 20.7641 11.2129 21.7755 12.2243C22.7869 13.2357 23.4462 14.5456 23.656 15.9605C23.8617 17.3476 23.6248 18.7642 22.9789 20.0088C22.3331 21.2535 21.3113 22.2628 20.0587 22.8933C18.8062 23.5237 17.3868 23.7431 16.0023 23.5204C14.6179 23.2976 13.3389 22.644 12.3474 21.6524C11.3559 20.6609 10.7022 19.3819 10.4795 17.9975C10.2567 16.6131 10.4761 15.1936 11.1065 13.9411C11.737 12.6886 12.7463 11.6667 13.991 11.0209Z" fill="white" fill-opacity="0.5"/>
</svg>
