<svg width="34" height="34" viewBox="0 0 34 34" fill="none" xmlns="http://www.w3.org/2000/svg">
<path d="M32.5832 4.25009C31.2265 5.20701 29.7245 5.93891 28.1348 6.41759C27.2816 5.43656 26.1477 4.74123 24.8865 4.42565C23.6252 4.11006 22.2975 4.18945 21.0828 4.65306C19.8681 5.11668 18.8251 5.94215 18.0949 7.01785C17.3647 8.09355 16.9824 9.36756 16.9998 10.6676V12.0843C14.5102 12.1488 12.0433 11.5967 9.81877 10.477C7.59422 9.35728 5.68112 7.70482 4.24984 5.66675C4.24984 5.66675 -1.41683 18.4168 11.3332 24.0834C8.41558 26.0639 4.93998 27.0569 1.4165 26.9168C14.1665 34.0001 29.7498 26.9168 29.7498 10.6251C29.7485 10.2305 29.7106 9.83685 29.6365 9.44925C31.0824 8.02337 32.1027 6.2231 32.5832 4.25009V4.25009Z" fill="white" fill-opacity="0.5"/>
</svg>
